<?xml version="1.0" encoding="UTF-8"?>
<svg width="200" height="200" viewBox="0 0 200 200" fill="none" xmlns="http://www.w3.org/2000/svg">
  <rect width="200" height="200" fill="#E5E7EB"/>
  <path d="M100 50C88.9543 50 80 58.9543 80 70C80 81.0457 88.9543 90 100 90C111.046 90 120 81.0457 120 70C120 58.9543 111.046 50 100 50ZM100 83.3333C92.8203 83.3333 86.6667 77.1797 86.6667 70C86.6667 62.8203 92.8203 56.6667 100 56.6667C107.18 56.6667 113.333 62.8203 113.333 70C113.333 77.1797 107.18 83.3333 100 83.3333Z" fill="#9CA3AF"/>
  <path d="M100 150C75.1475 150 54.1667 141.042 54.1667 129.167V120.833C54.1667 114.988 58.4883 110.417 64.1667 110.417H135.833C141.512 110.417 145.833 114.988 145.833 120.833V129.167C145.833 141.042 124.853 150 100 150ZM60.4167 120.833V129.167C60.4167 136.766 77.1975 143.333 100 143.333C122.803 143.333 139.583 136.766 139.583 129.167V120.833C139.583 117.738 137.323 115.208 134.167 114.583H65.8333C62.6771 114.583 60.4167 117.113 60.4167 120.833Z" fill="#9CA3AF"/>
</svg>
